<svg width="139" height="80" viewBox="0 0 139 80" fill="none" xmlns="http://www.w3.org/2000/svg">
<g clip-path="url(#clip0)">
<path d="M48.0604 61.4646C48.0655 61.6371 48.0163 61.8069 47.9197 61.9502C47.7942 62.1016 47.6325 62.2189 47.4494 62.2912C47.1602 62.4022 46.8574 62.4738 46.549 62.5039C46.0712 62.5571 45.5906 62.5812 45.1099 62.5762C44.6172 62.5818 44.1245 62.5577 43.6347 62.5039C43.3201 62.4719 43.0108 62.4005 42.7141 62.2912C42.526 62.222 42.3596 62.1043 42.2318 61.9502C42.1323 61.8082 42.0815 61.6378 42.087 61.4646V41.8017C42.0981 40.5458 41.9768 39.2923 41.7253 38.0617C41.5218 37.0304 41.1323 36.0446 40.5756 35.1524C40.0777 34.3671 39.3855 33.723 38.5657 33.2824C37.6738 32.835 36.6855 32.6131 35.6876 32.6364C34.3181 32.6364 32.9434 33.1634 31.5633 34.2174C29.8697 35.5904 28.339 37.1522 27.0008 38.8723V61.4646C27.0063 61.6378 26.9556 61.8082 26.8561 61.9502C26.7275 62.1035 26.5613 62.221 26.3737 62.2912C26.0771 62.4005 25.7678 62.4719 25.4532 62.5039C24.9754 62.5571 24.4948 62.5812 24.0141 62.5762C23.5388 62.5803 23.0636 62.5562 22.5911 62.5039C22.2712 62.4726 21.9565 62.4012 21.6545 62.2912C21.469 62.2256 21.3068 62.107 21.1882 61.9502C21.1006 61.8037 21.0573 61.6351 21.0636 61.4646V41.8017C21.0742 40.5437 20.9393 39.2888 20.6616 38.0617C20.4311 37.0296 20.0231 36.0453 19.4557 35.1524C18.9575 34.3673 18.2653 33.7233 17.4458 33.2824C16.5603 32.8332 15.5767 32.6111 14.5837 32.6364C13.217 32.6364 11.8369 33.1634 10.4433 34.2174C8.76214 35.5844 7.25069 37.1471 5.94118 38.8723V61.4646C5.94672 61.6378 5.89595 61.8082 5.79647 61.9502C5.67255 62.1015 5.51208 62.2189 5.33017 62.2912C5.04082 62.4017 4.73802 62.4733 4.42974 62.5039C3.93989 62.5576 3.44725 62.5817 2.95449 62.5762C2.47243 62.5812 1.99051 62.5571 1.51138 62.5039C1.19818 62.4715 0.890283 62.4001 0.594874 62.2912C0.409332 62.2256 0.24719 62.107 0.128578 61.9502C0.039513 61.8042 -0.0051732 61.6355 -5.49433e-05 61.4646V29.1171C-0.00494528 28.9487 0.0323634 28.7818 0.108481 28.6315C0.215331 28.4729 0.3662 28.3488 0.542618 28.2744C0.803491 28.1534 1.08393 28.0801 1.37069 28.0577C1.81303 28.0177 2.25712 28.0003 2.70124 28.0055C3.22783 28.0055 3.66599 28.0055 4.01571 28.0577C4.29549 28.0757 4.56883 28.1494 4.81966 28.2744C4.97972 28.3605 5.11738 28.4828 5.22164 28.6315C5.31007 28.7778 5.35471 28.9463 5.35027 29.1171V33.3948C6.85961 31.6198 8.65413 30.1077 10.6604 28.9205C12.2434 28.0092 14.0348 27.52 15.862 27.4999C17.0842 27.484 18.3023 27.6421 19.4798 27.9694C20.483 28.251 21.4335 28.6943 22.2936 29.2816C23.0963 29.8296 23.8014 30.5078 24.3799 31.288C24.9712 32.092 25.4562 32.9687 25.823 33.8964C26.7827 32.8363 27.8099 31.839 28.8981 30.9108C29.772 30.1661 30.7141 29.5051 31.712 28.9365C32.539 28.4621 33.4221 28.0927 34.3409 27.837C35.1801 27.6128 36.0449 27.4981 36.9136 27.4959C38.7292 27.4361 40.5326 27.8132 42.1715 28.5954C43.5351 29.2819 44.7137 30.2852 45.6084 31.5208C46.5144 32.8139 47.1514 34.2753 47.4816 35.8185C47.8584 37.5236 48.0444 39.2651 48.0363 41.0112L48.0604 61.4646Z" fill="black"/>
<path d="M83.3059 61.5008C83.3137 61.6234 83.2918 61.7461 83.2422 61.8586C83.1925 61.971 83.1165 62.0699 83.0205 62.1468C82.7796 62.3118 82.505 62.4215 82.2166 62.4679C81.7282 62.5524 81.2327 62.5887 80.7373 62.5762C80.2379 62.586 79.7387 62.5497 79.2459 62.4679C78.955 62.4307 78.6783 62.3202 78.442 62.1468C78.3548 62.0646 78.2871 61.9638 78.244 61.852C78.2009 61.7402 78.1834 61.6202 78.1928 61.5008V58.2664C76.8461 59.722 75.2405 60.9153 73.4575 61.7857C71.7354 62.621 69.8448 63.0519 67.9303 63.0457C66.3627 63.0643 64.8019 62.8396 63.3035 62.3796C62.0097 61.9848 60.8101 61.3308 59.7781 60.4574C58.7997 59.6095 58.0237 58.5537 57.507 57.3675C56.9508 56.0489 56.677 54.6287 56.703 53.1982C56.6604 51.5475 57.0454 49.9138 57.8205 48.455C58.5902 47.0859 59.697 45.9354 61.0363 45.1123C62.6079 44.1487 64.3375 43.4695 66.1455 43.1059C68.3832 42.639 70.665 42.4156 72.951 42.4398H77.4169V39.9237C77.4317 38.8085 77.2965 37.6964 77.015 36.6171C76.7881 35.73 76.3495 34.9108 75.7367 34.2295C75.1058 33.5672 74.3198 33.0721 73.4494 32.7889C72.3328 32.4395 71.1663 32.2755 69.9964 32.3033C68.6596 32.2951 67.3286 32.4802 66.045 32.8531C64.9974 33.1586 63.9747 33.5436 62.9859 34.0048C62.1096 34.4061 61.378 34.8073 60.7871 35.1525C60.3979 35.4276 59.9487 35.6064 59.4767 35.6741C59.2977 35.6774 59.1217 35.6286 58.9702 35.5337C58.8116 35.4211 58.6822 35.2725 58.5923 35.1003C58.4719 34.8697 58.393 34.6198 58.3592 34.3619C58.3087 34.0353 58.2845 33.7052 58.2868 33.3748C58.2746 32.8981 58.3164 32.4215 58.4114 31.9542C58.5176 31.5732 58.731 31.2306 59.0264 30.9671C59.5353 30.5329 60.0972 30.1648 60.6987 29.8716C61.5792 29.416 62.4946 29.0309 63.4361 28.7199C64.543 28.3543 65.6739 28.0661 66.8208 27.8571C68.0432 27.631 69.2838 27.5168 70.527 27.516C72.537 27.4763 74.5411 27.747 76.4683 28.3186C77.9558 28.7624 79.3141 29.5581 80.4278 30.638C81.4624 31.7013 82.2166 33.0043 82.6226 34.4301C83.1074 36.1477 83.3376 37.9269 83.3059 39.711V61.5008ZM77.4049 46.7295H72.3279C70.901 46.704 69.4758 46.8386 68.079 47.1308C67.017 47.343 66.0041 47.7512 65.0923 48.3346C64.3505 48.8196 63.7478 49.4889 63.3437 50.2769C62.9593 51.0905 62.7681 51.9817 62.7849 52.8812C62.7501 53.6259 62.8757 54.3694 63.153 55.0617C63.4304 55.7539 63.8532 56.3787 64.3928 56.894C65.4648 57.8892 66.9588 58.3855 68.8749 58.3828C70.4021 58.3926 71.9025 57.9831 73.2122 57.199C74.7851 56.2047 76.1997 54.9806 77.4089 53.5674L77.4049 46.7295Z" fill="black"/>
<path d="M139 18.4549C139.002 18.8447 138.985 19.2345 138.948 19.6226C138.911 19.9677 138.863 20.3048 138.803 20.6298C138.744 20.9465 138.66 21.2579 138.55 21.5608C138.441 21.8618 138.317 22.1788 138.172 22.5159L121.397 61.1114C121.295 61.3727 121.142 61.6113 120.947 61.8136C120.751 62.0028 120.519 62.1503 120.264 62.247C119.92 62.3657 119.562 62.4372 119.199 62.4597C118.768 62.4958 118.238 62.5159 117.615 62.5159C116.978 62.5269 116.341 62.4907 115.709 62.4075C115.356 62.3737 115.016 62.2568 114.716 62.0664C114.624 62.0039 114.55 61.9176 114.503 61.8166C114.455 61.7156 114.436 61.6036 114.447 61.4926C114.488 61.2134 114.574 60.9425 114.7 60.69L132.339 21.2157H109.985C109.761 21.216 109.541 21.1472 109.357 21.0187C109.173 20.8902 109.033 20.7082 108.956 20.4974C108.7 19.8605 108.584 19.1764 108.614 18.491C108.61 18.0877 108.64 17.6849 108.707 17.2871C108.753 16.9942 108.844 16.7101 108.976 16.4444C109.074 16.2423 109.222 16.0683 109.406 15.9388C109.579 15.8299 109.781 15.7741 109.985 15.7783H137.127C137.425 15.7733 137.723 15.8097 138.011 15.8866C138.251 15.9506 138.457 16.1044 138.586 16.316C138.733 16.5728 138.836 16.8522 138.891 17.1427C138.973 17.5751 139.009 18.0149 139 18.4549Z" fill="black"/>
<path d="M72.3278 79.3379C72.3305 79.4234 72.3141 79.5084 72.2796 79.5867C72.2492 79.6535 72.2038 79.7126 72.1469 79.7592C72.0948 79.8016 72.0347 79.833 71.9701 79.8515C71.9063 79.8716 71.84 79.8824 71.7731 79.8836H71.3711C71.2534 79.8841 71.136 79.8706 71.0214 79.8435C70.9189 79.8126 70.8234 79.7621 70.74 79.695C70.6368 79.6094 70.5449 79.511 70.4667 79.4021C70.3624 79.2507 70.2684 79.0925 70.1853 78.9286L67.279 73.5233C67.1303 73.2464 66.9735 72.9535 66.8208 72.6485C66.668 72.3435 66.5233 72.0425 66.3906 71.7536C66.3906 72.1067 66.3906 72.4679 66.4148 72.8331C66.4389 73.1982 66.4148 73.5674 66.4148 73.9286V79.6669C66.4133 79.7014 66.4021 79.7348 66.3826 79.7632C66.3563 79.7987 66.3199 79.8253 66.2781 79.8395C66.2298 79.8395 66.1615 79.8676 66.0851 79.8836C65.9821 79.8909 65.8787 79.8909 65.7756 79.8836C65.6739 79.8909 65.5718 79.8909 65.4701 79.8836C65.4062 79.873 65.3431 79.8583 65.2812 79.8395C65.2404 79.8255 65.2051 79.7988 65.1807 79.7632C65.1593 79.7358 65.1479 79.7018 65.1485 79.6669V70.8989C65.1436 70.8239 65.1559 70.7487 65.1844 70.6792C65.213 70.6097 65.2571 70.5475 65.3133 70.4976C65.4179 70.4164 65.5467 70.3726 65.6791 70.3732H66.3022C66.4265 70.3709 66.5506 70.383 66.672 70.4093C66.7671 70.433 66.857 70.4738 66.9373 70.5297C67.0241 70.5966 67.1 70.6765 67.1624 70.7665C67.2503 70.8857 67.3283 71.0118 67.3956 71.1437L69.6266 75.317L70.0285 76.0594C70.1572 76.3042 70.2818 76.5409 70.3984 76.7777L70.7521 77.4719C70.8687 77.6966 70.9812 77.9294 71.0978 78.1581C71.0978 77.7568 71.0978 77.3555 71.0777 76.9543C71.0576 76.553 71.0777 76.1316 71.0777 75.7504V70.5738C71.078 70.5392 71.0892 70.5055 71.1099 70.4775C71.1372 70.4432 71.1733 70.4169 71.2144 70.4013C71.2753 70.3739 71.3406 70.3576 71.4073 70.3531C71.5117 70.3458 71.6165 70.3458 71.7209 70.3531C71.8199 70.3462 71.9193 70.3462 72.0183 70.3531C72.085 70.3576 72.1503 70.3739 72.2113 70.4013C72.2513 70.4168 72.2861 70.4432 72.3118 70.4775C72.3324 70.5055 72.3436 70.5392 72.3439 70.5738L72.3278 79.3379Z" fill="#7F7F7F"/>
<path d="M80.681 79.3377C80.6855 79.4152 80.6855 79.493 80.681 79.5705C80.6721 79.6277 80.6545 79.6831 80.6287 79.735C80.6093 79.7738 80.5803 79.807 80.5443 79.8313C80.5115 79.8508 80.4739 79.8605 80.4358 79.8594H75.8572C75.7405 79.8589 75.6273 79.8193 75.5357 79.747C75.481 79.6965 75.4391 79.6338 75.4133 79.5641C75.3875 79.4944 75.3784 79.4196 75.3869 79.3457V70.8706C75.3784 70.7968 75.3875 70.722 75.4133 70.6523C75.4391 70.5825 75.481 70.5199 75.5357 70.4693C75.6273 70.3971 75.7405 70.3575 75.8572 70.357H80.3755C80.4123 70.3562 80.4486 70.3659 80.48 70.3851C80.5146 70.4088 80.5412 70.4423 80.5564 70.4814C80.5788 70.5341 80.595 70.5894 80.6046 70.6459C80.612 70.7273 80.612 70.8093 80.6046 70.8907C80.6116 70.9681 80.6116 71.046 80.6046 71.1234C80.5957 71.1788 80.5794 71.2328 80.5564 71.2839C80.5411 71.3219 80.5144 71.3542 80.48 71.3762C80.4486 71.3954 80.4123 71.4051 80.3755 71.4043H76.6491V74.3899H79.8449C79.8824 74.3881 79.9194 74.3994 79.9494 74.422C79.9841 74.4449 80.0119 74.4768 80.0298 74.5143C80.057 74.5638 80.0734 74.6185 80.078 74.6748C80.0848 74.7549 80.0848 74.8355 80.078 74.9156C80.0849 74.9917 80.0849 75.0682 80.078 75.1443C80.0729 75.1992 80.0565 75.2525 80.0298 75.3008C80.0106 75.3352 79.9829 75.3642 79.9494 75.3851C79.917 75.4015 79.8811 75.4098 79.8449 75.4091H76.6491V78.808H80.4237C80.4622 78.8081 80.4999 78.8193 80.5323 78.8401C80.5682 78.8628 80.5973 78.8947 80.6167 78.9324C80.6437 78.9823 80.6614 79.0367 80.6689 79.0929C80.6778 79.1742 80.6818 79.256 80.681 79.3377Z" fill="#7F7F7F"/>
<path d="M90.244 71.6491C90.2487 71.7306 90.2487 71.8123 90.244 71.8938C90.2365 71.9543 90.2217 72.0136 90.1998 72.0704C90.1858 72.1112 90.159 72.1463 90.1234 72.1707C90.0964 72.1896 90.064 72.1994 90.031 72.1988C89.9214 72.1784 89.8189 72.13 89.7335 72.0584C89.5561 71.9448 89.3722 71.8416 89.1828 71.7494C88.9161 71.624 88.6391 71.522 88.3547 71.4444C87.9829 71.3432 87.5984 71.2959 87.2131 71.304C86.7265 71.2966 86.2439 71.3938 85.7982 71.5889C85.3911 71.7759 85.0302 72.0498 84.741 72.3914C84.4411 72.7448 84.2143 73.154 84.0737 73.5953C83.9161 74.084 83.8374 74.5947 83.8405 75.1081C83.8319 75.654 83.919 76.1973 84.0978 76.7133C84.2462 77.158 84.4842 77.5677 84.7972 77.9171C85.0941 78.2405 85.4613 78.4917 85.8705 78.6515C86.3039 78.8236 86.7668 78.9095 87.2332 78.9043C87.5352 78.9032 87.8361 78.8668 88.1296 78.7959C88.423 78.7276 88.7057 78.6196 88.9698 78.4749V75.706H86.7629C86.7225 75.7066 86.6829 75.6951 86.6492 75.6729C86.6155 75.6507 86.5893 75.6189 86.574 75.5816C86.5247 75.4539 86.5041 75.3169 86.5137 75.1804C86.5089 75.1015 86.5089 75.0225 86.5137 74.9436C86.5227 74.8869 86.5389 74.8316 86.5619 74.7791C86.5799 74.7427 86.6078 74.7121 86.6423 74.6908C86.6742 74.669 86.7122 74.6578 86.7509 74.6587H89.7617C89.8168 74.6593 89.8713 74.6702 89.9225 74.6908C89.9782 74.7083 90.0291 74.7386 90.0712 74.7791C90.1198 74.8222 90.156 74.8777 90.1757 74.9396C90.201 75.0145 90.2133 75.0933 90.2119 75.1723V78.7839C90.2139 78.8973 90.1906 79.0097 90.1435 79.1129C90.0811 79.2232 89.9835 79.3094 89.8662 79.3577C89.6867 79.4447 89.5029 79.5223 89.3155 79.5905C89.0868 79.6753 88.8532 79.7463 88.616 79.8032C88.3766 79.8628 88.1336 79.907 87.8884 79.9356C87.6456 79.964 87.4013 79.9788 87.1568 79.9797C86.4846 79.9914 85.8162 79.8757 85.1872 79.6386C84.6318 79.426 84.1307 79.0929 83.7199 78.6635C83.309 78.2309 82.9964 77.7149 82.8034 77.1507C82.5833 76.5188 82.4758 75.8533 82.4859 75.1844C82.4758 74.4859 82.5915 73.7914 82.8275 73.1338C83.0392 72.5521 83.3674 72.0196 83.7923 71.5688C84.2137 71.135 84.7218 70.7945 85.2836 70.5696C85.8981 70.3241 86.5553 70.2027 87.2171 70.2125C87.5599 70.2106 87.9019 70.2428 88.2382 70.3088C88.5271 70.3621 88.8119 70.4359 89.0904 70.5295C89.3064 70.6035 89.515 70.6975 89.7134 70.8104C89.8387 70.8788 89.956 70.9609 90.0631 71.0552C90.1258 71.116 90.1716 71.192 90.1958 71.2759C90.2288 71.3975 90.245 71.523 90.244 71.6491Z" fill="#7F7F7F"/>
<path d="M101.101 74.9881C101.111 75.6915 101.02 76.3928 100.832 77.0708C100.673 77.6438 100.4 78.1789 100.028 78.6438C99.6639 79.081 99.1991 79.4238 98.6735 79.643C98.0686 79.8868 97.4204 80.0056 96.7681 79.9921C96.1328 80.0063 95.5007 79.8973 94.907 79.6711C94.4062 79.4721 93.9619 79.1538 93.6126 78.7441C93.2535 78.3001 92.9944 77.7841 92.8529 77.2313C92.676 76.5528 92.5921 75.8536 92.6036 75.1526C92.5947 74.4624 92.6854 73.7745 92.8729 73.1101C93.0294 72.5397 93.3032 72.008 93.6769 71.5491C94.0455 71.1167 94.5109 70.7771 95.0356 70.5579C96.2383 70.1038 97.5637 70.0924 98.774 70.5258C99.2749 70.7228 99.7204 71.0381 100.072 71.4448C100.436 71.883 100.699 72.3952 100.844 72.9456C101.024 73.6114 101.11 74.2987 101.101 74.9881ZM99.7629 75.0764C99.7655 74.5727 99.7184 74.07 99.6222 73.5756C99.5387 73.1482 99.3765 72.74 99.1438 72.3717C98.9211 72.0315 98.6136 71.7549 98.2514 71.5692C97.8192 71.3674 97.3455 71.2698 96.8686 71.2842C96.3889 71.2692 95.9133 71.3755 95.4858 71.5932C95.1219 71.7901 94.8114 72.0724 94.5814 72.4159C94.3377 72.781 94.1671 73.1898 94.0789 73.6197C93.9772 74.0945 93.9274 74.5788 93.9301 75.0643C93.9259 75.5812 93.9717 76.0972 94.0668 76.6053C94.1498 77.0315 94.3091 77.4393 94.5371 77.8091C94.7558 78.1513 95.0626 78.4285 95.4255 78.6117C95.8604 78.8136 96.337 78.9098 96.8163 78.8926C97.2959 78.9128 97.7729 78.812 98.2032 78.5996C98.5704 78.4023 98.8826 78.1168 99.1117 77.769C99.3472 77.4004 99.5147 76.9927 99.6061 76.5651C99.7099 76.0784 99.7624 75.5821 99.7629 75.0844V75.0764ZM97.6163 67.7248C97.6601 67.6683 97.7131 67.6195 97.7731 67.5804C97.8253 67.5433 97.8838 67.5161 97.9459 67.5001C98.0205 67.4774 98.0973 67.4626 98.175 67.456H98.4926C98.6087 67.4517 98.7249 67.4625 98.8383 67.4881C98.9033 67.5012 98.9641 67.5301 99.0152 67.5724C99.0307 67.587 99.0419 67.6055 99.0476 67.6261C99.0532 67.6466 99.0531 67.6683 99.0473 67.6887C99.0306 67.7415 99.0017 67.7896 98.9629 67.8292L97.2907 69.3701C97.2505 69.4136 97.2045 69.4514 97.154 69.4825C97.1109 69.5123 97.0635 69.5353 97.0133 69.5507C96.9515 69.5681 96.8883 69.5802 96.8244 69.5868C96.7374 69.5916 96.6501 69.5916 96.5631 69.5868C96.4743 69.5881 96.3855 69.5813 96.2978 69.5667C96.2491 69.561 96.2031 69.5415 96.1651 69.5106C96.1531 69.4972 96.1449 69.4808 96.1413 69.4631C96.1378 69.4455 96.1391 69.4272 96.1451 69.4102C96.1611 69.3581 96.1886 69.3101 96.2254 69.2698L97.6163 67.7248Z" fill="#7F7F7F"/>
<path d="M109.989 78.5151C109.989 78.5954 109.989 78.6636 109.989 78.7197C109.986 78.7726 109.978 78.825 109.965 78.8763C109.955 78.9171 109.938 78.9563 109.917 78.9926C109.888 79.0384 109.852 79.0802 109.812 79.117C109.717 79.2023 109.613 79.2776 109.503 79.3417C109.318 79.4578 109.123 79.5559 108.92 79.6347C108.659 79.7386 108.39 79.8204 108.116 79.8795C107.791 79.946 107.459 79.9783 107.127 79.9758C106.555 79.9853 105.987 79.8817 105.455 79.6708C104.965 79.4701 104.529 79.1582 104.181 78.7599C103.814 78.3236 103.54 77.8169 103.377 77.2711C102.989 75.9154 102.996 74.4777 103.397 73.1258C103.578 72.5524 103.868 72.0195 104.253 71.5568C104.613 71.1341 105.066 70.7992 105.575 70.5777C106.113 70.3463 106.694 70.2301 107.28 70.2366C107.55 70.2366 107.819 70.2635 108.084 70.3168C108.328 70.3623 108.569 70.4267 108.803 70.5095C109.009 70.5811 109.207 70.6725 109.394 70.7823C109.522 70.8533 109.642 70.9381 109.752 71.0351C109.801 71.0804 109.844 71.1317 109.881 71.1876C109.903 71.2249 109.919 71.2655 109.929 71.308C109.942 71.3622 109.951 71.4171 109.957 71.4725C109.962 71.5487 109.962 71.6251 109.957 71.7013C109.962 71.7841 109.962 71.8672 109.957 71.9501C109.951 72.0094 109.936 72.0675 109.913 72.1226C109.896 72.1611 109.873 72.1964 109.844 72.227C109.815 72.2476 109.78 72.2588 109.744 72.2591C109.635 72.2405 109.535 72.1902 109.455 72.1146C109.302 71.9993 109.142 71.8934 108.976 71.7976C108.752 71.6694 108.515 71.5645 108.269 71.4846C107.944 71.3817 107.604 71.3329 107.264 71.3401C106.864 71.3353 106.468 71.4218 106.106 71.5929C105.754 71.7658 105.449 72.022 105.218 72.3393C104.953 72.7015 104.758 73.1097 104.643 73.5432C104.5 74.0662 104.431 74.6064 104.438 75.1483C104.431 75.6898 104.497 76.2297 104.635 76.7535C104.745 77.1729 104.936 77.5669 105.198 77.9132C105.434 78.2183 105.742 78.4608 106.094 78.6194C106.475 78.7813 106.886 78.8619 107.3 78.8562C107.638 78.8638 107.974 78.8163 108.297 78.7157C108.548 78.6368 108.79 78.5333 109.02 78.4067C109.221 78.2917 109.386 78.1874 109.515 78.0937C109.6 78.0189 109.704 77.9701 109.816 77.9533C109.848 77.9521 109.878 77.9605 109.905 77.9774C109.935 77.9971 109.956 78.0271 109.965 78.0616C109.983 78.1176 109.994 78.1755 109.997 78.2342C110 78.3279 109.997 78.4217 109.989 78.5151Z" fill="#7F7F7F"/>
<path d="M113.478 79.671C113.48 79.7065 113.47 79.7415 113.45 79.7713C113.424 79.8056 113.387 79.8308 113.346 79.8435C113.282 79.8618 113.218 79.8765 113.153 79.8876C113.051 79.8947 112.949 79.8947 112.847 79.8876C112.747 79.8948 112.646 79.8948 112.546 79.8876C112.478 79.8768 112.411 79.8621 112.345 79.8435C112.304 79.832 112.268 79.8064 112.244 79.7713C112.224 79.7419 112.212 79.7069 112.212 79.671V70.5457C112.211 70.509 112.224 70.4732 112.248 70.4454C112.276 70.4102 112.314 70.3848 112.357 70.3732C112.421 70.3535 112.487 70.3388 112.554 70.3291C112.652 70.3223 112.75 70.3223 112.847 70.3291C112.949 70.322 113.051 70.322 113.153 70.3291C113.218 70.3383 113.283 70.353 113.346 70.3732C113.387 70.3859 113.424 70.4111 113.45 70.4454C113.47 70.4749 113.48 70.5101 113.478 70.5457V79.671Z" fill="#7F7F7F"/>
<path d="M124.493 74.9878C124.501 75.6914 124.409 76.3927 124.219 77.0704C124.062 77.6443 123.789 78.1797 123.415 78.6434C123.05 79.0808 122.583 79.4236 122.057 79.6427C121.452 79.8872 120.804 80.006 120.151 79.9918C119.517 80.0056 118.887 79.8966 118.294 79.6707C117.793 79.4728 117.348 79.1544 117 78.7438C116.639 78.3007 116.38 77.7844 116.24 77.2309C116.062 76.5527 115.976 75.8534 115.987 75.1523C115.979 74.4619 116.071 73.774 116.26 73.1097C116.416 72.5392 116.69 72.0076 117.064 71.5487C117.434 71.1158 117.901 70.7762 118.427 70.5576C119.629 70.1034 120.955 70.0921 122.165 70.5255C122.666 70.7225 123.112 71.0378 123.464 71.4444C123.827 71.8827 124.09 72.3949 124.235 72.9452C124.415 73.611 124.501 74.2983 124.493 74.9878ZM123.154 75.076C123.157 74.5721 123.109 74.0692 123.009 73.5752C122.929 73.1476 122.768 72.7391 122.535 72.3714C122.312 72.0301 122.003 71.7534 121.639 71.5688C121.208 71.3667 120.735 71.2691 120.26 71.2839C119.78 71.2685 119.304 71.3748 118.877 71.5929C118.512 71.7896 118.2 72.0719 117.968 72.4155C117.726 72.781 117.557 73.1898 117.47 73.6194C117.368 74.0942 117.319 74.5785 117.321 75.064C117.317 75.5808 117.363 76.0969 117.458 76.6049C117.537 77.0323 117.697 77.4408 117.928 77.8088C118.147 78.151 118.454 78.4282 118.817 78.6113C119.252 78.8132 119.728 78.9095 120.207 78.8923C120.691 78.9095 121.171 78.8032 121.602 78.5833C121.972 78.3872 122.285 78.1015 122.515 77.7526C122.751 77.3847 122.917 76.9766 123.005 76.5488C123.107 76.0673 123.157 75.5762 123.154 75.0841V75.076Z" fill="#7F7F7F"/>
<path d="M132.134 77.195C132.145 77.6096 132.061 78.0213 131.889 78.3988C131.728 78.7404 131.495 79.0429 131.206 79.2856C130.901 79.5343 130.55 79.7199 130.173 79.8314C129.76 79.9578 129.33 80.0201 128.898 80.016C128.6 80.0172 128.303 79.9903 128.01 79.9357C127.763 79.8874 127.519 79.8203 127.282 79.7351C127.096 79.6711 126.916 79.5906 126.744 79.4943C126.634 79.4369 126.533 79.3654 126.442 79.2816C126.384 79.2175 126.341 79.1405 126.318 79.0569C126.289 78.9374 126.275 78.8147 126.277 78.6918C126.27 78.6036 126.27 78.515 126.277 78.4269C126.283 78.3674 126.298 78.3092 126.322 78.2544C126.336 78.217 126.361 78.1848 126.394 78.1621C126.426 78.1443 126.462 78.1347 126.498 78.134C126.605 78.1503 126.705 78.1946 126.788 78.2624C127.163 78.4991 127.568 78.6828 127.994 78.8081C128.305 78.8978 128.627 78.9411 128.951 78.9365C129.207 78.9402 129.462 78.9022 129.706 78.8242C129.921 78.7589 130.121 78.6541 130.297 78.5152C130.459 78.3798 130.588 78.2097 130.675 78.0176C130.766 77.8075 130.812 77.5804 130.808 77.3515C130.814 77.1084 130.75 76.8686 130.623 76.6613C130.494 76.4636 130.329 76.2921 130.136 76.1556C129.92 76.0009 129.69 75.8665 129.449 75.7543L128.645 75.3892C128.37 75.2693 128.102 75.1354 127.841 74.9879C127.592 74.8396 127.362 74.6602 127.158 74.4542C126.955 74.2412 126.789 73.9956 126.667 73.7279C126.536 73.413 126.473 73.0737 126.482 72.7327C126.476 72.3679 126.55 72.0063 126.699 71.6733C126.838 71.3701 127.044 71.1024 127.302 70.8908C127.576 70.6732 127.888 70.5098 128.223 70.4092C128.596 70.2976 128.983 70.2422 129.373 70.2447C129.587 70.2457 129.801 70.2645 130.012 70.3009C130.216 70.3349 130.417 70.3832 130.615 70.4454C130.787 70.5033 130.955 70.573 131.117 70.654C131.222 70.6998 131.319 70.7607 131.407 70.8346C131.443 70.8668 131.475 70.9047 131.499 70.947C131.517 70.9779 131.529 71.0119 131.535 71.0473C131.547 71.0975 131.555 71.1485 131.559 71.1998C131.559 71.2559 131.559 71.3322 131.559 71.4285C131.564 71.506 131.564 71.5837 131.559 71.6612C131.553 71.7195 131.542 71.7771 131.527 71.8338C131.516 71.8739 131.494 71.9101 131.463 71.9381C131.436 71.9587 131.404 71.97 131.37 71.9702C131.279 71.9567 131.192 71.9208 131.117 71.8659C131.002 71.799 130.861 71.7228 130.695 71.6372C130.504 71.5411 130.305 71.4618 130.1 71.4004C129.851 71.3282 129.592 71.293 129.332 71.2961C129.098 71.2921 128.864 71.3273 128.641 71.4004C128.461 71.4615 128.296 71.5585 128.155 71.6853C128.032 71.7971 127.934 71.9339 127.869 72.0866C127.804 72.2501 127.772 72.4245 127.773 72.6002C127.765 72.841 127.829 73.0786 127.958 73.2824C128.087 73.4824 128.253 73.6555 128.448 73.7921C128.667 73.9476 128.899 74.082 129.143 74.1933L129.947 74.5666C130.215 74.6896 130.483 74.8234 130.751 74.9678C131.006 75.1123 131.24 75.2905 131.447 75.4975C131.653 75.7057 131.821 75.9489 131.941 76.2158C132.073 76.5252 132.139 76.8587 132.134 77.195Z" fill="#7F7F7F"/>
<path d="M98.8343 0H96.7521V62.3836H98.8343V0Z" fill="#8BBF4A"/>
</g>
<defs>
<clipPath id="clip0">
<rect x="-3.05176e-05" width="139" height="80" fill="white"/>
</clipPath>
</defs>
</svg>
