<svg width="139" height="80" viewBox="0 0 139 80" fill="none" xmlns="http://www.w3.org/2000/svg">
<g clip-path="url(#clip0)">
<path d="M48.0605 61.4647C48.0655 61.6372 48.0163 61.807 47.9198 61.9503C47.7943 62.1016 47.6325 62.219 47.4495 62.2913C47.1603 62.4023 46.8574 62.4739 46.5491 62.504C46.0713 62.5572 45.5907 62.5813 45.11 62.5763C44.6172 62.5819 44.1246 62.5578 43.6347 62.504C43.3201 62.472 43.0109 62.4006 42.7142 62.2913C42.5261 62.2221 42.3597 62.1044 42.2318 61.9503C42.1323 61.8082 42.0816 61.6379 42.0871 61.4647V41.8018C42.0981 40.5459 41.9769 39.2924 41.7253 38.0618C41.5219 37.0305 41.1323 36.0447 40.5757 35.1525C40.0778 34.3671 39.3855 33.7231 38.5658 33.2825C37.6739 32.8351 36.6855 32.6132 35.6876 32.6364C34.3182 32.6364 32.9434 33.1635 31.5633 34.2175C29.8698 35.5905 28.339 37.1523 27.0009 38.8724V61.4647C27.0064 61.6379 26.9556 61.8082 26.8561 61.9503C26.7275 62.1036 26.5613 62.2211 26.3738 62.2913C26.0771 62.4006 25.7678 62.472 25.4533 62.504C24.9755 62.5572 24.4949 62.5813 24.0142 62.5763C23.5388 62.5804 23.0636 62.5563 22.5912 62.504C22.2712 62.4727 21.9566 62.4013 21.6546 62.2913C21.469 62.2257 21.3069 62.1071 21.1883 61.9503C21.1006 61.8038 21.0573 61.6352 21.0637 61.4647V41.8018C21.0742 40.5438 20.9393 39.2889 20.6617 38.0618C20.4312 37.0297 20.0232 36.0454 19.4557 35.1525C18.9575 34.3674 18.2654 33.7234 17.4458 33.2825C16.5604 32.8333 15.5767 32.6112 14.5838 32.6364C13.217 32.6364 11.8369 33.1635 10.4434 34.2175C8.76219 35.5845 7.25075 37.1472 5.94124 38.8724V61.4647C5.94677 61.6379 5.89601 61.8082 5.79652 61.9503C5.67261 62.1016 5.51214 62.219 5.33023 62.2913C5.04087 62.4018 4.73807 62.4734 4.4298 62.504C3.93994 62.5576 3.4473 62.5818 2.95454 62.5763C2.47249 62.5813 1.99057 62.5572 1.51144 62.504C1.19824 62.4716 0.890336 62.4002 0.594927 62.2913C0.409386 62.2257 0.247243 62.1071 0.128631 61.9503C0.0395664 61.8042 -0.00511979 61.6356 -1.5375e-06 61.4647V29.1172C-0.00489188 28.9488 0.0324168 28.7819 0.108534 28.6316C0.215385 28.473 0.366253 28.3489 0.542671 28.2745C0.803544 28.1535 1.08398 28.0802 1.37074 28.0578C1.81308 28.0178 2.25717 28.0004 2.70129 28.0056C3.22788 28.0056 3.66604 28.0056 4.01576 28.0578C4.29554 28.0758 4.56889 28.1495 4.81972 28.2745C4.97978 28.3606 5.11744 28.4829 5.22169 28.6316C5.31012 28.7779 5.35476 28.9464 5.35033 29.1172V33.3949C6.85966 31.6199 8.65418 30.1078 10.6605 28.9205C12.2435 28.0093 14.0348 27.5201 15.8621 27.5C17.0842 27.4841 18.3024 27.6422 19.4799 27.9695C20.4831 28.2511 21.4335 28.6944 22.2937 29.2817C23.0963 29.8297 23.8015 30.5079 24.38 31.2881C24.9712 32.0921 25.4563 32.9688 25.8231 33.8965C26.7828 32.8364 27.81 31.8391 28.8982 30.9109C29.772 30.1662 30.7141 29.5052 31.712 28.9366C32.539 28.4622 33.4222 28.0928 34.341 27.8371C35.1802 27.6129 36.0449 27.4982 36.9136 27.496C38.7292 27.4362 40.5326 27.8133 42.1715 28.5955C43.5351 29.282 44.7138 30.2853 45.6084 31.5209C46.5145 32.814 47.1515 34.2754 47.4816 35.8186C47.8584 37.5237 48.0445 39.2652 48.0364 41.0112L48.0605 61.4647Z" fill="black"/>
<path d="M83.3059 61.5008C83.3137 61.6235 83.2919 61.7462 83.2422 61.8586C83.1925 61.971 83.1165 62.0699 83.0205 62.1469C82.7796 62.3119 82.505 62.4215 82.2166 62.4679C81.7282 62.5524 81.2327 62.5887 80.7373 62.5763C80.2379 62.586 79.7387 62.5497 79.2459 62.4679C78.955 62.4307 78.6784 62.3202 78.442 62.1469C78.3548 62.0646 78.2871 61.9638 78.244 61.852C78.2009 61.7403 78.1834 61.6202 78.1928 61.5008V58.2665C76.8461 59.722 75.2405 60.9153 73.4575 61.7857C71.7354 62.621 69.8448 63.052 67.9303 63.0457C66.3628 63.0643 64.8019 62.8396 63.3035 62.3796C62.0097 61.9848 60.8101 61.3308 59.7781 60.4575C58.7997 59.6095 58.0237 58.5537 57.507 57.3676C56.9508 56.0489 56.677 54.6288 56.703 53.1982C56.6604 51.5475 57.0454 49.9138 57.8205 48.4551C58.5902 47.0859 59.697 45.9354 61.0363 45.1124C62.6079 44.1487 64.3375 43.4695 66.1455 43.1059C68.3832 42.639 70.665 42.4156 72.951 42.4398H77.417V39.9238C77.4317 38.8086 77.2965 37.6965 77.015 36.6172C76.7881 35.73 76.3495 34.9108 75.7367 34.2295C75.1058 33.5673 74.3198 33.0722 73.4494 32.7889C72.3328 32.4395 71.1663 32.2755 69.9964 32.3034C68.6596 32.2951 67.3286 32.4803 66.045 32.8531C64.9974 33.1587 63.9747 33.5437 62.9859 34.0048C62.1096 34.4061 61.378 34.8074 60.7871 35.1525C60.3979 35.4277 59.9487 35.6065 59.4767 35.6742C59.2977 35.6775 59.1217 35.6287 58.9702 35.5337C58.8117 35.4211 58.6822 35.2726 58.5923 35.1003C58.4719 34.8697 58.393 34.6198 58.3592 34.362C58.3087 34.0354 58.2845 33.7053 58.2868 33.3748C58.2746 32.8981 58.3164 32.4216 58.4114 31.9542C58.5176 31.5732 58.731 31.2306 59.0264 30.9671C59.5353 30.5329 60.0972 30.1648 60.6987 29.8716C61.5792 29.4161 62.4946 29.031 63.4361 28.7199C64.543 28.3544 65.6739 28.0661 66.8208 27.8571C68.0432 27.631 69.2838 27.5168 70.527 27.516C72.537 27.4764 74.5411 27.7471 76.4683 28.3186C77.9558 28.7624 79.3141 29.5581 80.4278 30.638C81.4624 31.7013 82.2166 33.0043 82.6226 34.4302C83.1074 36.1477 83.3376 37.9269 83.3059 39.7111V61.5008ZM77.4049 46.7295H72.3279C70.901 46.7041 69.4758 46.8387 68.079 47.1308C67.017 47.343 66.0041 47.7513 65.0923 48.3347C64.3505 48.8196 63.7478 49.489 63.3437 50.2769C62.9594 51.0906 62.7681 51.9818 62.7849 52.8812C62.7501 53.626 62.8757 54.3695 63.153 55.0617C63.4304 55.7539 63.8532 56.3787 64.3929 56.8941C65.4648 57.8893 66.9588 58.3855 68.8749 58.3828C70.4021 58.3927 71.9025 57.9831 73.2122 57.199C74.7851 56.2048 76.1998 54.9806 77.4089 53.5674L77.4049 46.7295Z" fill="black"/>
<path d="M139 18.4551C139.002 18.8449 138.985 19.2347 138.948 19.6228C138.912 19.9679 138.863 20.305 138.803 20.63C138.744 20.9467 138.66 21.2581 138.55 21.561C138.441 21.862 138.317 22.179 138.172 22.5161L121.397 61.1116C121.295 61.3729 121.142 61.6115 120.947 61.8138C120.751 62.0031 120.519 62.1505 120.264 62.2472C119.92 62.3659 119.562 62.4374 119.199 62.4599C118.768 62.496 118.238 62.5161 117.615 62.5161C116.978 62.5271 116.341 62.4909 115.709 62.4077C115.356 62.3739 115.016 62.257 114.716 62.0666C114.624 62.0042 114.55 61.9178 114.503 61.8168C114.455 61.7158 114.436 61.6038 114.447 61.4928C114.488 61.2136 114.574 60.9427 114.7 60.6902L132.339 21.2159H109.985C109.761 21.2162 109.541 21.1474 109.357 21.0189C109.173 20.8904 109.033 20.7084 108.956 20.4976C108.7 19.8607 108.584 19.1767 108.614 18.4912C108.61 18.088 108.641 17.6851 108.707 17.2873C108.754 16.9945 108.844 16.7103 108.976 16.4446C109.074 16.2425 109.222 16.0685 109.406 15.939C109.579 15.8301 109.781 15.7743 109.985 15.7785H137.127C137.425 15.7735 137.723 15.8099 138.011 15.8869C138.251 15.9508 138.457 16.1046 138.586 16.3162C138.733 16.573 138.836 16.8524 138.891 17.1429C138.973 17.5754 139.009 18.0151 139 18.4551Z" fill="black"/>
<path d="M72.3278 79.3379C72.3305 79.4234 72.3141 79.5084 72.2796 79.5867C72.2492 79.6535 72.2038 79.7126 72.1469 79.7592C72.0948 79.8016 72.0347 79.833 71.9701 79.8515C71.9063 79.8716 71.84 79.8824 71.7731 79.8836H71.3711C71.2534 79.8841 71.136 79.8706 71.0214 79.8435C70.9189 79.8126 70.8234 79.7621 70.74 79.695C70.6368 79.6094 70.5449 79.511 70.4667 79.4021C70.3624 79.2507 70.2684 79.0925 70.1853 78.9286L67.279 73.5233C67.1303 73.2464 66.9735 72.9535 66.8208 72.6485C66.668 72.3435 66.5233 72.0425 66.3906 71.7536C66.3906 72.1067 66.3906 72.4679 66.4148 72.8331C66.4389 73.1982 66.4148 73.5674 66.4148 73.9286V79.6669C66.4133 79.7014 66.4021 79.7348 66.3826 79.7632C66.3563 79.7987 66.3199 79.8253 66.2781 79.8395C66.2298 79.8395 66.1615 79.8676 66.0851 79.8836C65.9821 79.8909 65.8787 79.8909 65.7756 79.8836C65.6739 79.8909 65.5718 79.8909 65.4701 79.8836C65.4062 79.873 65.3431 79.8583 65.2812 79.8395C65.2404 79.8255 65.2051 79.7988 65.1807 79.7632C65.1593 79.7358 65.1479 79.7018 65.1485 79.6669V70.8989C65.1436 70.8239 65.1559 70.7487 65.1844 70.6792C65.213 70.6097 65.2571 70.5475 65.3133 70.4976C65.4179 70.4164 65.5467 70.3726 65.6791 70.3732H66.3022C66.4265 70.3709 66.5506 70.383 66.672 70.4093C66.7671 70.433 66.857 70.4738 66.9373 70.5297C67.0241 70.5966 67.1 70.6765 67.1624 70.7665C67.2503 70.8857 67.3283 71.0118 67.3956 71.1437L69.6266 75.317L70.0285 76.0594C70.1572 76.3042 70.2818 76.5409 70.3984 76.7777L70.7521 77.4719C70.8687 77.6966 70.9812 77.9294 71.0978 78.1581C71.0978 77.7568 71.0978 77.3555 71.0777 76.9543C71.0576 76.553 71.0777 76.1316 71.0777 75.7504V70.5738C71.078 70.5392 71.0892 70.5055 71.1099 70.4775C71.1372 70.4432 71.1733 70.4169 71.2144 70.4013C71.2753 70.3739 71.3406 70.3576 71.4073 70.3531C71.5117 70.3458 71.6165 70.3458 71.7209 70.3531C71.8199 70.3462 71.9193 70.3462 72.0183 70.3531C72.085 70.3576 72.1503 70.3739 72.2113 70.4013C72.2513 70.4168 72.2861 70.4432 72.3118 70.4775C72.3324 70.5055 72.3436 70.5392 72.3439 70.5738L72.3278 79.3379Z" fill="#7F7F7F"/>
<path d="M80.681 79.3379C80.6855 79.4154 80.6855 79.4931 80.681 79.5706C80.6721 79.6278 80.6545 79.6833 80.6288 79.7351C80.6094 79.7739 80.5803 79.8071 80.5443 79.8315C80.5116 79.8509 80.4739 79.8607 80.4358 79.8596H75.8573C75.7405 79.859 75.6273 79.8194 75.5357 79.7472C75.4811 79.6966 75.4392 79.634 75.4133 79.5643C75.3875 79.4946 75.3785 79.4197 75.387 79.3459V70.8708C75.3785 70.7969 75.3875 70.7221 75.4133 70.6524C75.4392 70.5827 75.4811 70.52 75.5357 70.4695C75.6273 70.3972 75.7405 70.3577 75.8573 70.3571H80.3755C80.4123 70.3563 80.4486 70.3661 80.48 70.3852C80.5146 70.4089 80.5412 70.4425 80.5564 70.4815C80.5789 70.5343 80.595 70.5895 80.6046 70.6461C80.612 70.7275 80.612 70.8094 80.6046 70.8908C80.6117 70.9683 80.6117 71.0462 80.6046 71.1236C80.5957 71.179 80.5795 71.2329 80.5564 71.2841C80.5412 71.322 80.5145 71.3543 80.48 71.3764C80.4486 71.3955 80.4123 71.4053 80.3755 71.4045H76.6492V74.39H79.8449C79.8824 74.3882 79.9194 74.3996 79.9494 74.4221C79.9841 74.4451 80.0119 74.477 80.0298 74.5144C80.057 74.564 80.0735 74.6187 80.078 74.675C80.0849 74.7551 80.0849 74.8356 80.078 74.9157C80.0849 74.9918 80.0849 75.0684 80.078 75.1445C80.0729 75.1994 80.0565 75.2527 80.0298 75.301C80.0106 75.3354 79.9829 75.3644 79.9494 75.3852C79.9171 75.4017 79.8812 75.41 79.8449 75.4093H76.6492V78.8082H80.4237C80.4623 78.8083 80.4999 78.8194 80.5323 78.8403C80.5682 78.8629 80.5973 78.8948 80.6167 78.9326C80.6437 78.9825 80.6614 79.0369 80.669 79.0931C80.6778 79.1744 80.6818 79.2561 80.681 79.3379Z" fill="#7F7F7F"/>
<path d="M90.244 71.6493C90.2487 71.7308 90.2487 71.8125 90.244 71.8941C90.2365 71.9545 90.2217 72.0138 90.1998 72.0706C90.1858 72.1114 90.159 72.1466 90.1234 72.1709C90.0964 72.1898 90.064 72.1996 90.031 72.199C89.9214 72.1786 89.8189 72.1302 89.7335 72.0586C89.5561 71.945 89.3723 71.8418 89.1828 71.7496C88.9162 71.6242 88.6391 71.5222 88.3547 71.4446C87.9829 71.3434 87.5984 71.2961 87.2131 71.3042C86.7265 71.2968 86.2439 71.394 85.7982 71.5891C85.3911 71.7761 85.0302 72.0501 84.741 72.3916C84.4411 72.745 84.2143 73.1542 84.0737 73.5955C83.9161 74.0842 83.8374 74.5949 83.8405 75.1083C83.8319 75.6543 83.919 76.1975 84.0978 76.7135C84.2462 77.1582 84.4843 77.5679 84.7972 77.9173C85.0942 78.2407 85.4613 78.4919 85.8705 78.6517C86.3039 78.8238 86.7668 78.9097 87.2332 78.9045C87.5352 78.9034 87.8361 78.867 88.1296 78.7961C88.423 78.7278 88.7057 78.6198 88.9698 78.4751V75.7063H86.7629C86.7226 75.7069 86.6829 75.6953 86.6492 75.6731C86.6156 75.6509 86.5893 75.6191 86.574 75.5819C86.5247 75.4541 86.5041 75.3171 86.5137 75.1806C86.5089 75.1017 86.5089 75.0227 86.5137 74.9438C86.5227 74.8872 86.5389 74.8319 86.5619 74.7793C86.5799 74.7429 86.6078 74.7123 86.6423 74.691C86.6742 74.6692 86.7122 74.658 86.7509 74.6589H89.7617C89.8168 74.6595 89.8713 74.6704 89.9225 74.691C89.9782 74.7086 90.0291 74.7388 90.0712 74.7793C90.1199 74.8224 90.156 74.8779 90.1757 74.9398C90.201 75.0147 90.2133 75.0935 90.2119 75.1725V78.7841C90.2139 78.8975 90.1906 79.0099 90.1436 79.1132C90.0812 79.2234 89.9835 79.3096 89.8662 79.3579C89.6867 79.4449 89.5029 79.5226 89.3155 79.5907C89.0868 79.6755 88.8532 79.7465 88.616 79.8034C88.3766 79.863 88.1336 79.9072 87.8885 79.9358C87.6456 79.9642 87.4014 79.979 87.1568 79.9799C86.4846 79.9917 85.8162 79.8759 85.1872 79.6388C84.6318 79.4262 84.1307 79.0931 83.7199 78.6637C83.309 78.2311 82.9964 77.7151 82.8034 77.1509C82.5833 76.519 82.4759 75.8535 82.4859 75.1846C82.4758 74.4861 82.5915 73.7916 82.8276 73.134C83.0392 72.5523 83.3675 72.0198 83.7923 71.569C84.2137 71.1352 84.7218 70.7947 85.2836 70.5698C85.8981 70.3243 86.5553 70.2029 87.2172 70.2127C87.5599 70.2108 87.9019 70.243 88.2382 70.309C88.5271 70.3623 88.8119 70.4361 89.0904 70.5297C89.3064 70.6037 89.515 70.6978 89.7134 70.8106C89.8387 70.8791 89.956 70.9612 90.0632 71.0554C90.1258 71.1162 90.1716 71.1922 90.1958 71.2761C90.2288 71.3977 90.245 71.5233 90.244 71.6493Z" fill="#7F7F7F"/>
<path d="M101.101 74.988C101.111 75.6914 101.02 76.3927 100.832 77.0706C100.673 77.6437 100.4 78.1787 100.028 78.6437C99.6639 79.0809 99.1992 79.4237 98.6735 79.6429C98.0686 79.8867 97.4204 80.0054 96.7681 79.992C96.1328 80.0062 95.5007 79.8971 94.907 79.671C94.4062 79.472 93.9619 79.1537 93.6126 78.744C93.2536 78.3 92.9944 77.784 92.8529 77.2311C92.676 76.5527 92.5921 75.8534 92.6036 75.1525C92.5947 74.4623 92.6854 73.7744 92.873 73.11C93.0294 72.5395 93.3032 72.0079 93.6769 71.549C94.0455 71.1166 94.511 70.777 95.0356 70.5578C96.2383 70.1037 97.5637 70.0923 98.774 70.5257C99.2749 70.7227 99.7204 71.038 100.072 71.4446C100.436 71.8829 100.699 72.3951 100.844 72.9454C101.024 73.6112 101.11 74.2986 101.101 74.988ZM99.7629 75.0763C99.7655 74.5726 99.7184 74.0699 99.6222 73.5755C99.5387 73.1481 99.3765 72.7399 99.1438 72.3716C98.9211 72.0314 98.6136 71.7548 98.2514 71.569C97.8192 71.3673 97.3455 71.2697 96.8686 71.2841C96.389 71.2691 95.9133 71.3754 95.4858 71.5931C95.1219 71.7899 94.8115 72.0723 94.5814 72.4157C94.3377 72.7809 94.1671 73.1897 94.0789 73.6196C93.9773 74.0944 93.9274 74.5787 93.9302 75.0642C93.9259 75.5811 93.9717 76.0971 94.0668 76.6051C94.1498 77.0314 94.3092 77.4392 94.5372 77.809C94.7558 78.1512 95.0627 78.4284 95.4255 78.6116C95.8604 78.8135 96.337 78.9097 96.8164 78.8925C97.2959 78.9126 97.7729 78.8119 98.2032 78.5995C98.5704 78.4022 98.8826 78.1167 99.1117 77.7689C99.3473 77.4003 99.5147 76.9926 99.6061 76.565C99.7099 76.0782 99.7625 75.582 99.7629 75.0843V75.0763ZM97.6163 67.7247C97.6601 67.6682 97.7131 67.6194 97.7731 67.5803C97.8253 67.5432 97.8839 67.516 97.9459 67.5C98.0205 67.4773 98.0973 67.4625 98.1751 67.4559H98.4926C98.6088 67.4516 98.725 67.4624 98.8383 67.488C98.9033 67.5011 98.9641 67.53 99.0152 67.5722C99.0307 67.5868 99.0419 67.6054 99.0476 67.6259C99.0532 67.6465 99.0532 67.6681 99.0474 67.6886C99.0306 67.7414 99.0017 67.7895 98.9629 67.8291L97.2907 69.37C97.2505 69.4135 97.2045 69.4513 97.154 69.4823C97.1109 69.5122 97.0635 69.5352 97.0133 69.5506C96.9515 69.568 96.8883 69.58 96.8244 69.5867C96.7374 69.5915 96.6502 69.5915 96.5631 69.5867C96.4743 69.5879 96.3855 69.5812 96.2978 69.5666C96.2491 69.5609 96.2031 69.5414 96.1652 69.5104C96.1531 69.4971 96.1449 69.4807 96.1413 69.463C96.1378 69.4454 96.1391 69.4271 96.1451 69.4101C96.1611 69.3579 96.1886 69.31 96.2255 69.2697L97.6163 67.7247Z" fill="#7F7F7F"/>
<path d="M109.989 78.5153C109.989 78.5955 109.989 78.6637 109.989 78.7199C109.986 78.7728 109.978 78.8252 109.965 78.8764C109.955 78.9173 109.938 78.9565 109.917 78.9928C109.888 79.0386 109.852 79.0804 109.812 79.1172C109.717 79.2025 109.613 79.2778 109.503 79.3419C109.318 79.458 109.123 79.556 108.92 79.6349C108.659 79.7387 108.39 79.8206 108.116 79.8796C107.791 79.9462 107.459 79.9785 107.127 79.976C106.555 79.9855 105.987 79.8819 105.455 79.671C104.965 79.4703 104.529 79.1584 104.181 78.7601C103.814 78.3238 103.54 77.8171 103.377 77.2713C102.989 75.9156 102.996 74.4779 103.397 73.126C103.578 72.5526 103.868 72.0197 104.253 71.557C104.613 71.1343 105.066 70.7994 105.576 70.5779C106.114 70.3464 106.694 70.2302 107.28 70.2368C107.55 70.2368 107.819 70.2637 108.084 70.317C108.328 70.3625 108.569 70.4269 108.803 70.5096C109.009 70.5813 109.207 70.6727 109.394 70.7825C109.522 70.8535 109.642 70.9383 109.752 71.0353C109.801 71.0806 109.844 71.1318 109.881 71.1878C109.903 71.2251 109.92 71.2657 109.929 71.3082C109.942 71.3624 109.951 71.4173 109.957 71.4727C109.962 71.5489 109.962 71.6253 109.957 71.7015C109.962 71.7843 109.962 71.8674 109.957 71.9503C109.951 72.0096 109.936 72.0676 109.913 72.1228C109.896 72.1613 109.873 72.1966 109.845 72.2271C109.815 72.2478 109.78 72.259 109.744 72.2593C109.635 72.2406 109.535 72.1904 109.455 72.1148C109.302 71.9994 109.142 71.8936 108.976 71.7978C108.752 71.6696 108.515 71.5647 108.269 71.4848C107.944 71.3819 107.604 71.3331 107.264 71.3403C106.864 71.3355 106.468 71.422 106.106 71.5931C105.754 71.766 105.449 72.0222 105.218 72.3395C104.953 72.7017 104.758 73.1099 104.643 73.5434C104.5 74.0663 104.431 74.6066 104.438 75.1485C104.431 75.6899 104.497 76.2299 104.635 76.7536C104.745 77.1731 104.936 77.5671 105.198 77.9134C105.434 78.2185 105.742 78.461 106.094 78.6196C106.475 78.7815 106.886 78.8621 107.3 78.8564C107.638 78.864 107.974 78.8165 108.297 78.7159C108.548 78.637 108.79 78.5335 109.02 78.4069C109.221 78.2919 109.386 78.1876 109.515 78.0939C109.6 78.0191 109.704 77.9703 109.816 77.9535C109.848 77.9523 109.879 77.9607 109.905 77.9776C109.935 77.9972 109.956 78.0273 109.965 78.0618C109.983 78.1178 109.994 78.1757 109.997 78.2344C110 78.3281 109.997 78.4219 109.989 78.5153Z" fill="#7F7F7F"/>
<path d="M113.478 79.671C113.48 79.7065 113.47 79.7415 113.45 79.7713C113.424 79.8056 113.387 79.8308 113.346 79.8435C113.282 79.8618 113.218 79.8765 113.153 79.8876C113.051 79.8947 112.949 79.8947 112.847 79.8876C112.747 79.8948 112.646 79.8948 112.546 79.8876C112.478 79.8768 112.411 79.8621 112.345 79.8435C112.304 79.832 112.268 79.8064 112.244 79.7713C112.224 79.7419 112.212 79.7069 112.212 79.671V70.5457C112.211 70.509 112.224 70.4732 112.248 70.4454C112.276 70.4102 112.314 70.3848 112.357 70.3732C112.421 70.3535 112.487 70.3388 112.554 70.3291C112.652 70.3223 112.75 70.3223 112.847 70.3291C112.949 70.322 113.051 70.322 113.153 70.3291C113.218 70.3383 113.283 70.353 113.346 70.3732C113.387 70.3859 113.424 70.4111 113.45 70.4454C113.47 70.4749 113.48 70.5101 113.478 70.5457V79.671Z" fill="#7F7F7F"/>
<path d="M124.493 74.988C124.501 75.6916 124.409 76.3929 124.219 77.0706C124.062 77.6445 123.789 78.18 123.415 78.6437C123.05 79.081 122.583 79.4238 122.057 79.6429C121.452 79.8874 120.804 80.0062 120.151 79.992C119.517 80.0058 118.887 79.8968 118.294 79.671C117.793 79.473 117.348 79.1546 117 78.744C116.639 78.3009 116.38 77.7846 116.24 77.2311C116.062 76.5529 115.976 75.8536 115.987 75.1525C115.979 74.4621 116.071 73.7742 116.26 73.11C116.416 72.5394 116.69 72.0078 117.064 71.549C117.434 71.116 117.901 70.7764 118.427 70.5578C119.629 70.1037 120.955 70.0923 122.165 70.5257C122.666 70.7227 123.112 71.038 123.464 71.4446C123.827 71.8829 124.09 72.3951 124.235 72.9454C124.415 73.6112 124.501 74.2986 124.493 74.988ZM123.154 75.0763C123.157 74.5724 123.109 74.0695 123.009 73.5755C122.929 73.1478 122.768 72.7393 122.535 72.3716C122.312 72.0303 122.003 71.7536 121.639 71.569C121.208 71.3669 120.735 71.2693 120.26 71.2841C119.78 71.2687 119.304 71.375 118.877 71.5931C118.512 71.7898 118.2 72.0721 117.969 72.4157C117.726 72.7812 117.557 73.19 117.47 73.6196C117.368 74.0944 117.319 74.5787 117.321 75.0642C117.317 75.5811 117.363 76.0971 117.458 76.6051C117.537 77.0325 117.697 77.441 117.928 77.809C118.147 78.1512 118.454 78.4284 118.817 78.6116C119.252 78.8135 119.728 78.9097 120.208 78.8925C120.691 78.9097 121.171 78.8034 121.602 78.5835C121.972 78.3874 122.285 78.1017 122.515 77.7528C122.751 77.3849 122.917 76.9768 123.005 76.549C123.107 76.0675 123.157 75.5764 123.154 75.0843V75.0763Z" fill="#7F7F7F"/>
<path d="M132.134 77.195C132.145 77.6097 132.061 78.0214 131.889 78.3989C131.728 78.7404 131.495 79.043 131.206 79.2857C130.901 79.5344 130.55 79.7199 130.173 79.8315C129.76 79.9579 129.33 80.0201 128.898 80.016C128.6 80.0172 128.303 79.9904 128.01 79.9358C127.763 79.8874 127.519 79.8204 127.282 79.7351C127.096 79.6712 126.916 79.5906 126.744 79.4944C126.634 79.437 126.533 79.3655 126.442 79.2817C126.384 79.2176 126.341 79.1406 126.318 79.057C126.289 78.9375 126.275 78.8148 126.277 78.6918C126.27 78.6037 126.27 78.5151 126.277 78.427C126.283 78.3675 126.298 78.3092 126.322 78.2544C126.336 78.217 126.361 78.1848 126.394 78.1621C126.426 78.1444 126.462 78.1348 126.499 78.134C126.605 78.1503 126.705 78.1947 126.788 78.2624C127.163 78.4992 127.569 78.6828 127.994 78.8082C128.305 78.8978 128.627 78.9411 128.951 78.9366C129.207 78.9402 129.462 78.9023 129.706 78.8242C129.921 78.759 130.121 78.6542 130.297 78.5152C130.459 78.3799 130.588 78.2098 130.675 78.0176C130.766 77.8076 130.812 77.5805 130.808 77.3515C130.814 77.1084 130.75 76.8687 130.623 76.6613C130.494 76.4637 130.329 76.2921 130.136 76.1557C129.92 76.0009 129.69 75.8666 129.449 75.7544L128.645 75.3892C128.37 75.2694 128.102 75.1355 127.841 74.988C127.592 74.8396 127.362 74.6603 127.158 74.4543C126.955 74.2412 126.789 73.9957 126.667 73.7279C126.536 73.413 126.473 73.0738 126.482 72.7327C126.476 72.368 126.55 72.0063 126.699 71.6733C126.838 71.3701 127.044 71.1025 127.302 70.8908C127.576 70.6733 127.888 70.5098 128.223 70.4093C128.596 70.2977 128.983 70.2423 129.373 70.2448C129.587 70.2457 129.801 70.2645 130.012 70.301C130.216 70.335 130.417 70.3832 130.615 70.4454C130.787 70.5033 130.955 70.5731 131.117 70.6541C131.222 70.6999 131.32 70.7607 131.407 70.8347C131.443 70.8669 131.475 70.9048 131.499 70.947C131.517 70.978 131.529 71.012 131.535 71.0473C131.547 71.0976 131.555 71.1485 131.559 71.1998C131.559 71.256 131.559 71.3323 131.559 71.4286C131.564 71.5061 131.564 71.5838 131.559 71.6613C131.553 71.7195 131.542 71.7772 131.527 71.8339C131.516 71.874 131.494 71.9102 131.463 71.9382C131.436 71.9587 131.404 71.97 131.37 71.9703C131.279 71.9567 131.192 71.9209 131.117 71.866C131.002 71.7991 130.861 71.7228 130.695 71.6372C130.504 71.5411 130.305 71.4619 130.1 71.4005C129.851 71.3283 129.592 71.2931 129.332 71.2961C129.098 71.2921 128.864 71.3274 128.641 71.4005C128.461 71.4616 128.296 71.5585 128.155 71.6854C128.032 71.7971 127.934 71.934 127.869 72.0867C127.805 72.2502 127.772 72.4245 127.773 72.6003C127.765 72.841 127.829 73.0787 127.958 73.2825C128.087 73.4824 128.253 73.6555 128.448 73.7921C128.667 73.9477 128.899 74.082 129.144 74.1934L129.947 74.5666C130.215 74.6897 130.483 74.8234 130.751 74.9679C131.006 75.1123 131.24 75.2905 131.447 75.4976C131.653 75.7057 131.821 75.949 131.941 76.2159C132.073 76.5252 132.139 76.8588 132.134 77.195Z" fill="#7F7F7F"/>
<path d="M98.8344 0H96.7521V62.3836H98.8344V0Z" fill="#8BBF4A"/>
</g>
<defs>
<clipPath id="clip0">
<rect width="139" height="80" fill="white"/>
</clipPath>
</defs>
</svg>
