<svg width="30" height="30" viewBox="0 0 30 30" fill="none" xmlns="http://www.w3.org/2000/svg">
<g clip-path="url(#clip0)">
<path d="M28.3872 -5.37053e-06H1.64136C1.16933 -0.000897665 0.73687 0.262626 0.521233 0.682299C0.302622 1.10762 0.34099 1.6198 0.620277 2.00824L10.4188 15.8117C10.4221 15.8164 10.4257 15.8209 10.4289 15.8257C10.785 16.3063 10.9777 16.8887 10.9786 17.4868V28.7407C10.9765 29.0738 11.1074 29.3941 11.342 29.6306C11.577 29.8667 11.8965 30 12.2296 30C12.3988 29.9997 12.5666 29.9661 12.723 29.9009L18.229 27.8017C18.7222 27.6509 19.0496 27.1854 19.0496 26.6251V17.4868C19.0505 16.8887 19.2433 16.3063 19.599 15.8257C19.6023 15.8209 19.6058 15.8164 19.6091 15.8117L29.408 2.00795C29.6872 1.6198 29.7256 1.10792 29.507 0.682597C29.2917 0.262625 28.8589 -0.000897665 28.3872 -5.37053e-06Z" fill="#8BBF4A"/>
</g>
<defs>
<clipPath id="clip0">
<rect width="30" height="30" fill="white"/>
</clipPath>
</defs>
</svg>
