<svg width="52" height="52" viewBox="0 0 52 52" fill="none" xmlns="http://www.w3.org/2000/svg">
<path d="M17.6754 43.1687L17.1503 41.3596C17.0324 40.9531 16.7048 40.6342 16.2953 40.527L13.081 39.6867C12.9803 39.6604 12.877 39.647 12.7738 39.647C12.4258 39.647 12.0941 39.7982 11.8639 40.0619C11.6347 40.3245 11.5304 40.6736 11.5775 41.0193L11.8212 42.8066C11.8885 43.3011 12.245 43.6977 12.7294 43.8169L16.2252 44.6793C16.321 44.7029 16.4192 44.7149 16.5169 44.7149C16.8935 44.7149 17.2542 44.5339 17.4819 44.2307C17.712 43.9244 17.7825 43.5373 17.6754 43.1687ZM13.263 42.424L13.0991 41.2215L15.7716 41.9202L16.1227 43.1295L13.263 42.424Z" fill="#8BBF4A"/>
<path d="M40.1425 40.0619C39.9126 39.7982 39.581 39.647 39.2328 39.647C39.1297 39.647 39.0263 39.6604 38.9256 39.6867L35.7114 40.527C35.302 40.6341 34.9743 40.9531 34.8564 41.3595L34.3311 43.1687C34.2241 43.5373 34.2946 43.9243 34.5246 44.2307C34.7522 44.5338 35.1131 44.7149 35.4896 44.7149C35.4897 44.7149 35.4897 44.7149 35.4897 44.7149C35.5874 44.7149 35.6856 44.7029 35.7813 44.6793L39.2769 43.817C39.7615 43.6976 40.118 43.3011 40.1853 42.8067L40.4288 41.0194C40.4761 40.6735 40.3717 40.3244 40.1425 40.0619ZM38.7437 42.424L35.884 43.1294L36.2351 41.9201L38.9076 41.2214L38.7437 42.424Z" fill="#8BBF4A"/>
<path d="M43.4183 30.5889H41.5199C40.7488 30.5889 40.1214 31.2163 40.1214 31.9874V32.3071L38.04 25.7484C37.6151 24.4097 36.3861 23.5103 34.9814 23.5103H17.0256C15.6212 23.5103 14.3919 24.4097 13.967 25.7484L11.6287 33.1163L11.5797 33.0537C11.6442 32.8915 11.6787 32.7173 11.6787 32.5375V31.9874C11.6787 31.2164 11.0514 30.5889 10.2802 30.5889H8.38191C7.61085 30.5889 6.9834 31.2163 6.9834 31.9874V32.5375C6.9834 33.3086 7.61075 33.936 8.38191 33.936H10.2803C10.316 33.936 10.3512 33.9335 10.3864 33.9308L10.7974 34.4551C9.84115 35.3559 9.24244 36.6321 9.24244 38.0463V44.085C9.24244 45.259 10.0066 46.2572 11.0635 46.6103V48.5419C11.0635 49.7799 12.0706 50.7871 13.3086 50.7871H15.5395C16.7775 50.7871 17.7847 49.7799 17.7847 48.5419V46.7472H34.2225V48.5419C34.2225 49.7799 35.2296 50.7871 36.4676 50.7871H38.6984C39.9364 50.7871 40.9436 49.7799 40.9436 48.5419V46.6103C42.0004 46.2572 42.7646 45.2591 42.7646 44.085V38.0463C42.7646 36.5736 42.1155 35.2502 41.0892 34.3451L41.4139 33.9308C41.449 33.9335 41.4842 33.936 41.5199 33.936H43.4183C44.1894 33.936 44.8168 33.3087 44.8168 32.5375V31.9874C44.8167 31.2164 44.1894 30.5889 43.4183 30.5889ZM10.1984 32.4557H8.46377V32.0693H10.1984V32.4557ZM15.3779 26.1963C15.6068 25.4751 16.269 24.9905 17.0256 24.9905H34.9815C35.7382 24.9905 36.4003 25.475 36.6292 26.1962L38.8578 33.2184C38.8554 33.2179 38.8531 33.2175 38.8507 33.2171C38.8463 33.2161 38.8418 33.2152 38.8373 33.2142C38.8169 33.2099 38.7963 33.2064 38.7759 33.2024C38.7756 33.2023 38.7753 33.2023 38.775 33.2022C38.7452 33.1964 38.7155 33.1903 38.6855 33.1851C38.6643 33.1813 38.6428 33.1783 38.6215 33.1748C38.5988 33.1711 38.5761 33.1673 38.5532 33.1639C38.5416 33.1622 38.5301 33.1604 38.5184 33.1588C38.4925 33.1551 38.4665 33.1523 38.4406 33.149C38.4106 33.1452 38.3805 33.1412 38.3502 33.138C38.3466 33.1376 38.343 33.1371 38.3395 33.1367C38.328 33.1355 38.3164 33.1348 38.3049 33.1338C38.294 33.1328 38.2829 33.1319 38.2719 33.1309C38.2455 33.1286 38.2193 33.1256 38.1929 33.1237L36.0732 26.3734C35.9219 25.8952 35.4832 25.574 34.9815 25.574H17.0257C16.5244 25.574 16.0857 25.895 15.9335 26.3745L13.8087 33.1242C13.8023 33.1247 13.796 33.1257 13.7896 33.1263C13.7601 33.1286 13.7308 33.131 13.7014 33.1339C13.6903 33.135 13.679 33.1356 13.6678 33.1368C13.6061 33.1432 13.5445 33.1509 13.4831 33.1597C13.4763 33.1606 13.4697 33.1618 13.4629 33.1628C13.4618 33.1629 13.4609 33.1631 13.4599 33.1633C13.4352 33.167 13.4108 33.1708 13.3862 33.1748C13.3339 33.1833 13.2817 33.1927 13.2298 33.2028C13.2099 33.2067 13.1899 33.2101 13.1701 33.2143C13.1646 33.2154 13.1592 33.2166 13.1537 33.2178C13.1522 33.2181 13.1507 33.2183 13.1491 33.2186L15.3779 26.1963ZM36.6371 33.1102H15.365L17.2714 27.0542H34.7353L36.6371 33.1102ZM12.9891 34.802C12.9932 34.8005 12.9974 34.7988 13.0016 34.7973C13.0143 34.7926 13.0273 34.7886 13.0401 34.7842C13.0944 34.7652 13.1492 34.7475 13.2045 34.7312C13.2211 34.7264 13.238 34.7216 13.2548 34.7169C13.2584 34.7159 13.2621 34.7149 13.2657 34.7139C13.321 34.6987 13.3767 34.685 13.4328 34.6726C13.449 34.6691 13.4652 34.6651 13.4814 34.6618C13.5484 34.648 13.6158 34.6362 13.6837 34.6264C13.7002 34.6241 13.7169 34.6223 13.7334 34.62C13.7897 34.6127 13.8462 34.6069 13.9029 34.6024C13.9125 34.6016 13.9219 34.6008 13.9315 34.6002C13.9423 34.5994 13.9532 34.5985 13.9641 34.5979C14.0353 34.5935 14.1066 34.5905 14.1782 34.5905C14.1783 34.5905 14.1784 34.5905 14.1786 34.5905H14.356H37.6452H37.8285C37.9002 34.5905 37.9716 34.5935 38.0429 34.5979C38.0545 34.5986 38.066 34.5996 38.0774 34.6004C38.0863 34.601 38.095 34.6018 38.1039 34.6025C38.1608 34.607 38.2175 34.6128 38.274 34.6201C38.2903 34.6223 38.3069 34.6241 38.3231 34.6264C38.391 34.6362 38.4585 34.6481 38.5255 34.6618C38.5418 34.6651 38.5579 34.669 38.5742 34.6726C38.6303 34.685 38.6859 34.6987 38.7413 34.7139C38.7454 34.715 38.7496 34.7161 38.7538 34.7173C38.7699 34.7218 38.786 34.7264 38.8021 34.731C38.8579 34.7474 38.9131 34.7653 38.9679 34.7844C38.9802 34.7887 38.9928 34.7925 39.0051 34.797C39.0095 34.7986 39.0138 34.8003 39.018 34.8019C39.0589 34.817 39.0992 34.834 39.1396 34.8506C38.327 37.1164 36.1786 38.6535 33.7293 38.6535H18.2778C15.8284 38.6535 13.6801 37.1164 12.8675 34.8506C12.9078 34.834 12.948 34.8171 12.9891 34.802ZM16.3044 48.5418C16.3044 48.9634 15.9612 49.3066 15.5395 49.3066H13.3086C12.8869 49.3066 12.5437 48.9634 12.5437 48.5418V46.7472H16.3044V48.5418ZM19.3136 45.2641V44.5612C19.3136 44.0611 19.7205 43.6544 20.2206 43.6544H31.7864C32.2865 43.6544 32.6933 44.0611 32.6933 44.5612V45.2641H19.3136ZM39.4633 48.5418C39.4633 48.9634 39.1201 49.3066 38.6984 49.3066H36.4676C36.0459 49.3066 35.7027 48.9634 35.7027 48.5418V46.7472H39.4633V48.5418ZM41.2843 38.0463V44.085C41.2843 44.7091 40.7976 45.2206 40.184 45.2628C40.1778 45.263 40.1716 45.2625 40.1653 45.2628L40.1207 45.2657L34.9626 45.267H34.1737V44.5613C34.1737 43.2451 33.1028 42.1742 31.7865 42.1742H20.2206C18.9043 42.1742 17.8334 43.2451 17.8334 44.5613V45.267H11.9078L11.8416 45.2628C11.8353 45.2625 11.8291 45.263 11.8229 45.2628C11.2094 45.2206 10.7227 44.7091 10.7227 44.085V38.0463C10.7227 37.1533 11.0632 36.3383 11.6212 35.7243C12.7375 38.3677 15.3342 40.1338 18.2778 40.1338H33.7292C36.6727 40.1338 39.2694 38.3676 40.3858 35.7243C40.9437 36.3383 41.2843 37.1533 41.2843 38.0463ZM43.3364 32.4557H41.6018V32.0693H43.3364V32.4557Z" fill="#8BBF4A"/>
<path d="M51.436 13.0104L26.134 1.34214C25.9482 1.25642 25.7503 1.21295 25.5457 1.21295C25.3373 1.21295 25.1278 1.26048 24.9397 1.35047L0.551482 13.014C0.216429 13.1741 0 13.5176 0 13.8889V16.3326C0 16.7443 0.258272 17.096 0.621052 17.2366V49.6981C0.621052 50.2985 1.10946 50.787 1.7099 50.787H5.62431C6.22474 50.787 6.71325 50.2985 6.71325 49.6981V20.2438H45.2867V49.6981C45.2867 50.2985 45.7753 50.787 46.3757 50.787H50.2901C50.8905 50.787 51.3789 50.2985 51.3789 49.6981V17.2365C51.7416 17.0959 52 16.7442 52 16.3325V13.8912C51.9998 13.5142 51.7786 13.1685 51.436 13.0104ZM5.23289 19.5036V49.3067H2.10132V17.3025H5.23289V19.5036ZM45.2866 18.7634H6.71315V17.3025H45.2866V18.7634ZM49.8985 49.3067H46.7669V19.5036V17.3025H49.8985V49.3067ZM50.5195 15.8223H46.0268H5.97297H1.48027V14.2106L25.5462 2.70124L50.5195 14.2178V15.8223Z" fill="#8BBF4A"/>
</svg>
