<svg width="21" height="28" viewBox="0 0 21 28" fill="none" xmlns="http://www.w3.org/2000/svg">
<g clip-path="url(#clip0)">
<path d="M9.37073 27.4351C1.80313 15.9158 0.398438 14.7335 0.398438 10.5C0.398438 4.70099 4.87557 0 10.3984 0C15.9213 0 20.3984 4.70099 20.3984 10.5C20.3984 14.7335 18.9937 15.9158 11.4261 27.4351C10.9295 28.1883 9.86729 28.1883 9.37073 27.4351ZM10.3984 14.875C12.6996 14.875 14.5651 12.9163 14.5651 10.5C14.5651 8.08374 12.6996 6.125 10.3984 6.125C8.09724 6.125 6.23177 8.08374 6.23177 10.5C6.23177 12.9163 8.09724 14.875 10.3984 14.875Z" fill="#8BBF4A"/>
</g>
<defs>
<clipPath id="clip0">
<rect x="0.398438" width="20" height="28" fill="white"/>
</clipPath>
</defs>
</svg>
