<svg width="32" height="32" viewBox="0 0 32 32" fill="none" xmlns="http://www.w3.org/2000/svg">
<path d="M26.6222 5.56381C24.1793 2.02819 20.3076 0 16.0007 0C11.6937 0 7.82205 2.02819 5.37911 5.56381C2.94817 9.08156 2.38686 13.5351 3.87461 17.4698C4.27255 18.5443 4.90511 19.5882 5.75024 20.5665L15.1489 31.6061C15.3614 31.856 15.6729 32 16.0007 32C16.3285 32 16.6399 31.8561 16.8525 31.6061L26.2485 20.5695C27.0974 19.5856 27.7291 18.5428 28.1237 17.4769C29.6145 13.5351 29.0532 9.08156 26.6222 5.56381ZM26.0285 16.6933C25.7242 17.5157 25.2274 18.3288 24.5527 19.1108C24.5508 19.1127 24.5489 19.1146 24.5474 19.1168L16.0007 29.1554L7.44867 19.1105C6.77436 18.3291 6.27755 17.5161 5.97024 16.6859C4.73986 13.4318 5.2068 9.74956 7.21967 6.83638C9.23886 3.91388 12.4396 2.23775 16.0007 2.23775C19.5617 2.23775 22.7621 3.91381 24.7813 6.83638C26.7945 9.74956 27.2619 13.4318 26.0285 16.6933Z" fill="#878787"/>
<path d="M16.0001 6.63867C12.5454 6.63867 9.73438 9.4493 9.73438 12.9044C9.73438 16.3595 12.545 19.1702 16.0001 19.1702C19.4553 19.1702 22.2659 16.3595 22.2659 12.9044C22.2659 9.44967 19.4549 6.63867 16.0001 6.63867ZM16.0001 16.9324C13.7791 16.9324 11.9721 15.1254 11.9721 12.9044C11.9721 10.6834 13.7791 8.87636 16.0001 8.87636C18.2211 8.87636 20.0281 10.6834 20.0281 12.9044C20.0281 15.1254 18.2211 16.9324 16.0001 16.9324Z" fill="#878787"/>
</svg>
