<svg width="52" height="52" viewBox="0 0 52 52" fill="none" xmlns="http://www.w3.org/2000/svg">
<path d="M21.9223 31.0781H21.9215C21.3605 31.0781 20.9062 31.5327 20.9062 32.0937C20.9062 32.6543 21.3613 33.1093 21.9223 33.1093C22.4832 33.1093 22.9379 32.6543 22.9379 32.0937C22.9379 31.5327 22.4832 31.0781 21.9223 31.0781Z" fill="#8BBF4A"/>
<path d="M20.9067 23.1305C22.5865 23.1305 23.9536 21.7638 23.9536 20.0836C23.9536 18.4039 22.5865 17.0367 20.9067 17.0367C19.2266 17.0367 17.8599 18.4039 17.8599 20.0836C17.8599 21.7638 19.2266 23.1305 20.9067 23.1305ZM20.9067 19.068C21.4665 19.068 21.9224 19.5238 21.9224 20.0836C21.9224 20.6438 21.4665 21.0992 20.9067 21.0992C20.3466 21.0992 19.8911 20.6438 19.8911 20.0836C19.8911 19.5238 20.3466 19.068 20.9067 19.068Z" fill="#8BBF4A"/>
<path d="M5.89285 24.4774V38.1875C5.89285 38.7481 6.34751 39.2031 6.90848 39.2031H34.9052C35.4658 39.2031 35.9208 38.7481 35.9208 38.1875V24.4762C36.312 24.6487 36.7278 24.7344 37.142 24.7344C38.079 24.7344 39.0042 24.304 39.5997 23.4919C40.5911 22.139 40.2971 20.2316 38.9459 19.2409L34.6648 16.0913V6.09375H35.3202C35.8812 6.09375 36.3358 5.6391 36.3358 5.07812V1.01562C36.3358 0.454651 35.8812 0 35.3202 0H25.1639C24.603 0 24.1483 0.454651 24.1483 1.01562V5.07812C24.1483 5.6391 24.603 6.09375 25.1639 6.09375H25.8193V9.58298L22.7502 7.3248C21.685 6.51349 20.189 6.49921 19.1067 7.29306L14.2591 10.8596C13.8072 11.1921 13.7108 11.8277 14.0428 12.2795C14.3753 12.731 15.0113 12.8278 15.4631 12.4958L20.3092 8.92996C20.6694 8.66574 21.1681 8.6709 21.522 8.94266C21.5275 8.94702 21.5331 8.95099 21.5386 8.95496L37.7438 20.8782C38.1933 21.2079 38.2909 21.8415 37.9616 22.2914C37.6319 22.7409 36.998 22.8385 36.5496 22.51L21.5089 11.4432C21.1506 11.1798 20.6631 11.1798 20.3048 11.4432L5.26523 22.5088C4.81574 22.8385 4.18176 22.7409 3.85208 22.291C3.5228 21.8415 3.62039 21.2075 4.07147 20.877L8.91831 17.3109C9.37018 16.9784 9.46698 16.3424 9.13452 15.8906C8.80246 15.4391 8.16651 15.3423 7.71463 15.6747L2.86899 19.2397C1.51615 20.2316 1.22217 22.139 2.21399 23.4919C3.07211 24.6626 4.61499 25.0395 5.89285 24.4774ZM26.1796 2.03125H34.3046V4.0625H26.1796V2.03125ZM27.8506 6.09375H32.6335V14.5968L27.8506 11.0775V6.09375ZM15.8285 33.109H11.9866V29.0469H15.8285V33.109ZM17.8598 34.125C17.8598 34.125 17.8598 34.125 17.8598 34.1246C17.8598 34.1246 17.8598 34.1246 17.8598 34.1242V28.032C17.8598 28.0316 17.8598 28.0312 17.8598 28.0312C17.8598 28.0309 17.8598 28.0305 17.8598 28.0301V27.0152H23.9535V37.1715H17.8598V34.125ZM25.9848 29.0469H29.8267V33.109H25.9848V29.0469ZM20.9066 13.5225L33.8896 23.0745V37.1719H25.9848V35.1402H30.8423C31.4033 35.1402 31.8579 34.6856 31.8579 34.1246V28.0312C31.8579 27.4703 31.4033 27.0156 30.8423 27.0156H25.9848C25.9848 25.8953 25.0739 24.9844 23.9535 24.9844H17.8598C16.7398 24.9844 15.8285 25.8953 15.8285 27.0156H10.971C10.41 27.0156 9.95535 27.4703 9.95535 28.0312V34.1246C9.95535 34.6856 10.41 35.1402 10.971 35.1402H15.8285V37.1719H7.9241V23.0745L20.9066 13.5225Z" fill="#8BBF4A"/>
<path d="M37.5855 45.6562C37.1887 45.2595 36.5457 45.2595 36.1489 45.6562C35.7526 46.0525 35.7526 46.6956 36.1489 47.0923L36.7202 47.6636H34.9048C34.3438 47.6636 33.8892 48.1183 33.8892 48.6793C33.8892 49.2402 34.3438 49.6949 34.9048 49.6949H36.7202L36.1489 50.2662C35.7526 50.6629 35.7526 51.3056 36.1489 51.7023C36.3473 51.9007 36.6071 51.9999 36.867 51.9999C37.1273 51.9999 37.3871 51.9007 37.5855 51.7023L39.8905 49.3977C40.2868 49.001 40.2868 48.3579 39.8905 47.9612L37.5855 45.6562Z" fill="#8BBF4A"/>
<path d="M26.78 47.6636H5.0928L5.6637 47.0923C6.06042 46.696 6.06042 46.0529 5.6637 45.6562C5.26736 45.2598 4.62427 45.2594 4.22754 45.6562L1.92255 47.9612C1.73212 48.1516 1.625 48.4099 1.625 48.6792C1.625 48.9486 1.73212 49.2069 1.92255 49.3973L4.22754 51.7023C4.4259 51.9007 4.68576 51.9998 4.94562 51.9998C5.20547 51.9998 5.46573 51.9007 5.6637 51.7023C6.06042 51.3056 6.06042 50.6625 5.6637 50.2657L5.0928 49.6949H26.78C27.3405 49.6949 27.7956 49.2398 27.7956 48.6792C27.7956 48.1183 27.3405 47.6636 26.78 47.6636Z" fill="#8BBF4A"/>
<path d="M48.641 35.164L48.0697 35.7353V3.46741L48.641 4.0387C49.0378 4.43503 49.6805 4.43503 50.0772 4.0387C50.4739 3.64197 50.4739 2.99887 50.0772 2.60214L47.7722 0.297546C47.3759 -0.0991821 46.7328 -0.0991821 46.336 0.297546L44.031 2.60254C43.6343 2.99887 43.6343 3.64197 44.031 4.0387C44.2294 4.23706 44.4893 4.33624 44.7491 4.33624C45.009 4.33624 45.2688 4.23706 45.4672 4.0387L46.0385 3.46741V35.7353L45.4672 35.164C45.0705 34.7677 44.4274 34.7677 44.0306 35.164C43.6343 35.5608 43.6343 36.2039 44.0306 36.6006L46.336 38.9056C46.5344 39.1039 46.7943 39.2031 47.0541 39.2031C47.314 39.2031 47.5738 39.1039 47.7722 38.9056L50.0772 36.6006C50.4735 36.2039 50.4735 35.5608 50.0772 35.164C49.6805 34.7677 49.0378 34.7677 48.641 35.164Z" fill="#8BBF4A"/>
<path d="M11.589 15.101C11.8183 15.101 12.0488 15.0236 12.2384 14.8657L12.2392 14.8654C12.6701 14.5059 12.728 13.866 12.369 13.4351C12.0099 13.0039 11.3692 12.9464 10.9384 13.305C10.5071 13.6645 10.4492 14.3048 10.8082 14.7356C11.009 14.9764 11.2982 15.101 11.589 15.101Z" fill="#8BBF4A"/>
<path d="M30.8427 47.6638H30.8419C30.2809 47.6638 29.8267 48.1184 29.8267 48.6794C29.8267 49.2404 30.2817 49.695 30.8427 49.695C31.4033 49.695 31.8583 49.2404 31.8583 48.6794C31.8583 48.1184 31.4033 47.6638 30.8427 47.6638Z" fill="#8BBF4A"/>
</svg>
